<svg width="36" height="36" viewBox="0 0 36 36" fill="none" xmlns="http://www.w3.org/2000/svg">
<path d="M18.0003 34.28C18.6302 34.2655 19.2348 34.0287 19.7069 33.6114C20.1791 33.1942 20.4884 32.6234 20.5803 32H15.3203C15.4148 32.6403 15.7386 33.2245 16.2316 33.6439C16.7246 34.0633 17.3531 34.2894 18.0003 34.28Z" fill="#003865"/>
<path d="M32.8498 28.13L32.5098 27.83C31.5452 26.9706 30.701 25.9851 29.9998 24.9C29.234 23.4026 28.7751 21.7673 28.6498 20.09V15.15C28.6457 14.55 28.5922 13.9513 28.4898 13.36C26.7959 13.0119 25.2744 12.089 24.1828 10.7478C23.0912 9.40657 22.4967 7.72932 22.4998 6.00002V5.37002C21.4557 4.85621 20.334 4.51833 19.1798 4.37002V3.11002C19.1798 2.75596 19.0392 2.4164 18.7888 2.16604C18.5384 1.91568 18.1989 1.77502 17.8448 1.77502C17.4907 1.77502 17.1512 1.91568 16.9008 2.16604C16.6505 2.4164 16.5098 2.75596 16.5098 3.11002V4.42002C13.9255 4.78458 11.5604 6.07177 9.85103 8.04396C8.14167 10.0161 7.20353 12.5402 7.2098 15.15V20.09C7.08456 21.7673 6.62558 23.4026 5.8598 24.9C5.17069 25.9824 4.34 26.9678 3.3898 27.83L3.0498 28.13V30.95H32.8498V28.13Z" fill="#003865"/>
<path d="M30 11C32.7614 11 35 8.76142 35 6C35 3.23858 32.7614 1 30 1C27.2386 1 25 3.23858 25 6C25 8.76142 27.2386 11 30 11Z" fill="#003865"/>
</svg>
